<svg width="80" height="80" viewBox="0 0 80 80" fill="none" xmlns="http://www.w3.org/2000/svg">
<circle cx="40" cy="40" r="40" fill="#FCA467" fill-opacity="0.16"/>
<path d="M27.7526 54.2506V49.4215C27.2776 49.2895 26.8818 49.0388 26.5651 48.6694C26.2484 48.3 26.0637 47.8513 26.0109 47.3236L24.5859 32.084H25.5755C26.1825 32.084 26.7171 32.2951 27.1794 32.7173C27.6418 33.1395 27.8988 33.6541 27.9505 34.2611L28.9005 44.7507H35.6693C36.5401 44.7507 37.2859 45.061 37.9065 45.6817C38.5272 46.3023 38.837 47.0475 38.8359 47.9173V49.5007H37.2526V54.2506H34.8776V49.5007H30.1276V54.2506H27.7526ZM40.4193 54.2506V41.584H30.9193C30.9193 40.7132 31.2296 39.9679 31.8503 39.3483C32.4709 38.7287 33.2162 38.4184 34.0859 38.4173H49.9193C50.7901 38.4173 51.5359 38.7277 52.1565 39.3483C52.7772 39.969 53.087 40.7142 53.0859 41.584H43.5859V54.2506H40.4193ZM34.0859 35.2507V33.6673C34.0859 31.9257 34.7061 30.4347 35.9464 29.1944C37.1866 27.9541 38.6776 27.334 40.4193 27.334V22.584H43.5859V27.334C45.3276 27.334 46.8186 27.9541 48.0589 29.1944C49.2991 30.4347 49.9193 31.9257 49.9193 33.6673V35.2507H34.0859ZM46.7526 54.2506V49.5007H45.1693V47.9173C45.1693 47.0465 45.4796 46.3013 46.1003 45.6817C46.7209 45.062 47.4662 44.7517 48.3359 44.7507H55.1443L56.0943 34.2611C56.1471 33.6541 56.3977 33.1395 56.8464 32.7173C57.295 32.2951 57.8227 32.084 58.4297 32.084H59.4193L58.0339 47.3236C57.9811 47.8513 57.79 48.3 57.4607 48.6694C57.1314 49.0388 56.7287 49.2895 56.2526 49.4215V54.2506H53.8776V49.5007H49.1276V54.2506H46.7526Z" fill="url(#paint0_linear_3693_24111)"/>
<defs>
<linearGradient id="paint0_linear_3693_24111" x1="42.0026" y1="22.584" x2="42.0026" y2="54.2507" gradientUnits="userSpaceOnUse">
<stop stop-color="#FFDDC0"/>
<stop offset="1" stop-color="#FF7B0D"/>
</linearGradient>
</defs>
</svg>
