<svg width="80" height="80" viewBox="0 0 80 80" fill="none" xmlns="http://www.w3.org/2000/svg">
<circle cx="40" cy="40" r="40" fill="#FDA6A6" fill-opacity="0.2"/>
<path d="M53.1856 40.9785H25.4846C25.2674 40.9745 25.0521 41.0191 24.8544 41.109C24.6566 41.1989 24.4815 41.3319 24.3418 41.4982C24.202 41.6645 24.1012 41.8599 24.0467 42.0701C23.9922 42.2804 23.9853 42.5002 24.0266 42.7134C24.4708 44.9917 25.4712 47.1249 26.9389 48.9233C28.4065 50.7216 30.2959 52.1293 32.439 53.0211C32.6079 53.0897 32.745 53.219 32.8233 53.3836C32.9015 53.5483 32.9153 53.7362 32.8618 53.9105C32.7155 54.4471 32.6468 55.0019 32.6577 55.558C32.6577 55.9446 32.8113 56.3155 33.0847 56.5889C33.3581 56.8623 33.729 57.0159 34.1156 57.0159H44.5691C44.9558 57.0159 45.3267 56.8623 45.6001 56.5889C45.8735 56.3155 46.0271 55.9446 46.0271 55.558C46.0237 54.9998 45.9403 54.445 45.7792 53.9105C45.7291 53.7362 45.7445 53.5496 45.8223 53.3858C45.9002 53.222 46.0352 53.0923 46.202 53.0211C48.3505 52.1332 50.2458 50.7272 51.7188 48.9286C53.1917 47.13 54.1965 44.9948 54.6436 42.7134C54.6849 42.5002 54.678 42.2804 54.6235 42.0701C54.569 41.8599 54.4682 41.6645 54.3284 41.4982C54.1887 41.3319 54.0135 41.1989 53.8158 41.109C53.6181 41.0191 53.4028 40.9745 53.1856 40.9785ZM58.8279 28.615L56.4077 23.3081C56.2901 23.0462 56.1212 22.8105 55.9108 22.6152C55.7004 22.4198 55.4529 22.2687 55.183 22.1709C54.9202 22.0594 54.6375 22.002 54.352 22.002C54.0665 22.002 53.7838 22.0594 53.521 22.1709L45.2252 25.9907C44.7847 26.1883 44.4406 26.5525 44.2684 27.0035C44.0962 27.4546 44.11 27.9555 44.3067 28.3963L47.0331 34.3739C47.1772 34.6933 47.411 34.9639 47.7061 35.1529C48.0011 35.3419 48.3448 35.441 48.6951 35.4382C48.9518 35.44 49.2056 35.3852 49.4387 35.2779L57.7344 31.5163C58.2625 31.2747 58.6738 30.8342 58.8786 30.2908C59.0834 29.7474 59.0652 29.1451 58.8279 28.615ZM37.1482 31.5018C37.1482 32.0818 37.3786 32.638 37.7887 33.0482C38.1988 33.4583 38.7551 33.6887 39.3351 33.6887C39.9151 33.6887 40.4714 33.4583 40.8815 33.0482C41.2916 32.638 41.522 32.0818 41.522 31.5018C41.522 30.9218 41.2916 30.3655 40.8815 29.9554C40.4714 29.5452 39.9151 29.3148 39.3351 29.3148C38.7551 29.3148 38.1988 29.5452 37.7887 29.9554C37.3786 30.3655 37.1482 30.9218 37.1482 31.5018ZM40.0641 36.6046C40.0641 36.8918 40.1206 37.1762 40.2305 37.4415C40.3404 37.7068 40.5015 37.9479 40.7046 38.151C40.9077 38.3541 41.1488 38.5152 41.4141 38.6251C41.6794 38.735 41.9638 38.7915 42.251 38.7915C42.5382 38.7915 42.8226 38.735 43.0879 38.6251C43.3532 38.5152 43.5943 38.3541 43.7974 38.151C44.0005 37.9479 44.1616 37.7068 44.2715 37.4415C44.3814 37.1762 44.4379 36.8918 44.4379 36.6046C44.4379 36.3174 44.3814 36.033 44.2715 35.7677C44.1616 35.5024 44.0005 35.2613 43.7974 35.0582C43.5943 34.8551 43.3532 34.694 43.0879 34.5841C42.8226 34.4742 42.5382 34.4177 42.251 34.4177C41.9638 34.4177 41.6794 34.4742 41.4141 34.5841C41.1488 34.694 40.9077 34.8551 40.7046 35.0582C40.5015 35.2613 40.3404 35.5024 40.2305 35.7677C40.1206 36.033 40.0641 36.3174 40.0641 36.6046ZM34.2323 36.6046C34.2323 37.1846 34.4627 37.7409 34.8728 38.151C35.2829 38.5611 35.8392 38.7915 36.4192 38.7915C36.9992 38.7915 37.5555 38.5611 37.9656 38.151C38.3757 37.7409 38.6061 37.1846 38.6061 36.6046C38.6061 36.0246 38.3757 35.4683 37.9656 35.0582C37.5555 34.6481 36.9992 34.4177 36.4192 34.4177C35.8392 34.4177 35.2829 34.6481 34.8728 35.0582C34.4627 35.4683 34.2323 36.0246 34.2323 36.6046Z" fill="url(#paint0_linear_3693_24112)"/>
<defs>
<linearGradient id="paint0_linear_3693_24112" x1="41.51" y1="22.002" x2="41.51" y2="57.0159" gradientUnits="userSpaceOnUse">
<stop stop-color="#FFB4B4"/>
<stop offset="1" stop-color="#C53F3F"/>
</linearGradient>
</defs>
</svg>
